<?xml version="1.0" encoding="utf-8"?>
<!-- Generator: Adobe Illustrator 16.0.0, SVG Export Plug-In . SVG Version: 6.00 Build 0)  -->
<!DOCTYPE svg PUBLIC "-//W3C//DTD SVG 1.1//EN" "http://www.w3.org/Graphics/SVG/1.1/DTD/svg11.dtd">
<svg version="1.1" id="Capa_1" xmlns="http://www.w3.org/2000/svg" xmlns:xlink="http://www.w3.org/1999/xlink" x="0px" y="0px"
	 width="841.891px" height="595.279px" viewBox="0 0 841.891 595.279" enable-background="new 0 0 841.891 595.279"
	 xml:space="preserve">
<path fill="#F7F7F8" d="M58.846,450.247c0-7.038,0-10.56,0-17.597c6.116-0.271,9.177-0.398,15.297-0.66
	c-0.151-36.753-0.315-73.511-0.464-110.27c-5.948,1.651-8.916,2.493-14.83,4.22c0-6.998,0-10.496,0-17.496
	c18.611-6.208,28.005-9.104,46.938-14.479c12.188,34.014,24.019,68.108,35.592,102.336c10.951-39.579,21.349-79.305,31.391-119.124
	c19.451-4.245,29.247-6.155,48.909-9.559c0.146,8.981,0.21,13.471,0.357,22.454c-6.244,0.948-9.365,1.441-15.587,2.469
	c0.753,44.954,1.504,89.907,2.261,134.859c6.229-0.157,9.346-0.23,15.578-0.385c0.149,9.028,0.227,13.552,0.376,22.578
	c-20.81,0.057-31.218,0.093-52.023,0.166c-0.14-8.533-0.21-12.8-0.351-21.336c6.222-0.188,9.336-0.28,15.562-0.457
	c-0.729-43.588-1.458-87.176-2.193-130.761C172.3,348.254,158.681,399.211,143.9,449.863c-2.536,0.01-3.805,0.017-6.34,0.029
	c-14.76-44.236-29.981-88.252-45.889-132.09c0.316,37.806,0.629,75.622,0.942,113.426c6.318-0.25,9.478-0.372,15.805-0.616
	c0.083,7.763,0.125,11.645,0.208,19.402C88.707,450.101,78.755,450.144,58.846,450.247z">
		<animateTransform  
			fill="remove" type="translate" 
			restart="always" 
			calcMode="linear" 
			additive="replace" 
			accumulate="none" 
			values="-150,0;-70,0;20.76,0" 
			dur="0.5s" repeatCount="1" 
			attributeType="XML" 
			attributeName="transform" 
			id="move">
		</animateTransform>
</path>
<path fill="#F7F7F8" d="M323.551,415.337c-4.281,9.23-8.634,16.566-13.059,22.066c-4.436,5.502-9.276,9.384-14.531,11.694
	c-5.259,2.312-11.418,3.45-18.468,3.45c-7.751,0-14.817-1.611-21.176-4.757c-6.363-3.142-11.839-7.609-16.417-13.379
	c-4.584-5.769-8.196-12.751-10.733-20.907c-2.527-8.142-3.842-17.291-4.01-27.419c-0.211-13.174,1.676-25.063,5.686-35.8
	c4.008-10.733,9.734-19.396,17.18-25.926c7.448-6.525,16.049-10.344,25.81-11.244c7.172-0.663,13.772,0.412,19.802,3.247
	c6.027,2.834,11.212,7.141,15.557,12.913c4.335,5.771,7.765,12.938,10.222,21.424c2.425,8.395,3.672,17.789,3.775,28.08
	c0.036,3.588,0.053,5.389,0.087,8.978c-30.965,0.872-46.445,1.479-77.316,3.028c1.019,11.868,4.41,21.225,10.064,28.177
	c5.563,6.836,12.74,10.297,21.538,10.163c6.479-0.098,12.026-1.892,16.639-5.438c4.614-3.54,9.31-9.627,14.104-18.308
	C314.403,409.325,317.453,411.322,323.551,415.337z M246.032,370.76c23.023-1.525,34.573-2.166,57.672-3.193
	c-1.984-15.08-7.102-25.45-15.194-30.289c-3.924-2.347-8.582-3.278-13.616-2.885c-7.551,0.589-13.67,3.636-18.36,9.021
	C251.204,349.517,247.707,358.638,246.032,370.76z">
<animateTransform  
			fill="remove" type="translate" 
			restart="always" 
			calcMode="linear" 
			additive="replace" 
			accumulate="none" 
			values="-250,0;-70,0;20.76,0"  
			dur="0.5s" repeatCount="1" 
			attributeType="XML" 
			attributeName="transform" 
			id="move">
		</animateTransform>
		</path>
<path fill="#F7F7F8" d="M324.754,449.379c-0.093-9.393-0.142-14.099-0.233-23.499c5.628-0.065,8.438-0.093,14.065-0.146
	c-0.255-30.178-0.521-60.357-0.779-90.537c-5.671,0.244-8.513,0.374-14.184,0.658c-0.095-9.452-0.142-14.177-0.229-23.629
	c12.687-0.761,19.04-1.076,31.746-1.593c0.07,10.199,0.099,15.297,0.173,25.495c2.783-10.151,7.198-17.703,13.103-22.637
	c5.948-4.966,12.802-7.627,20.546-7.784c1.821-0.038,3.775,0.059,5.863,0.292c0.031,11.681,0.048,17.525,0.08,29.208
	c-2.988-1.037-5.841-1.527-8.565-1.481c-8.504,0.151-15.529,4.769-21.046,13.749c-5.518,8.978-8.211,20.044-8.121,33.218
	c0.122,17.951,0.183,26.924,0.307,44.872c7.903-0.058,11.854-0.086,19.759-0.129c0.049,9.559,0.066,14.338,0.107,23.893
	C356.312,449.345,345.795,449.357,324.754,449.379z">
<animateTransform  
			fill="remove" type="translate" 
			restart="always" 
			calcMode="linear" 
			additive="replace" 
			accumulate="none" 
			values="-350,0;-70,0;20.76,0"  
			dur="0.7s" repeatCount="1" 
			attributeType="XML" 
			attributeName="transform" 
			id="move">
		</animateTransform>
</path>
<path fill="#F7F7F8" d="M323.551,415.337c-4.281,9.23-8.634,16.566-13.059,22.066c-4.436,5.502-9.276,9.384-14.531,11.694
	c-5.259,2.312-11.418,3.45-18.468,3.45c-7.751,0-14.817-1.611-21.176-4.757c-6.363-3.142-11.839-7.609-16.417-13.379
	c-4.584-5.769-8.196-12.751-10.733-20.907c-2.527-8.142-3.842-17.291-4.01-27.419c-0.211-13.174,1.676-25.063,5.686-35.8
	c4.008-10.733,9.734-19.396,17.18-25.926c7.448-6.525,16.049-10.344,25.81-11.244c7.172-0.663,13.772,0.412,19.802,3.247
	c6.027,2.834,11.212,7.141,15.557,12.913c4.335,5.771,7.765,12.938,10.222,21.424c2.425,8.395,3.672,17.789,3.775,28.08
	c0.036,3.588,0.053,5.389,0.087,8.978c-30.965,0.872-46.445,1.479-77.316,3.028c1.019,11.868,4.41,21.225,10.064,28.177
	c5.563,6.836,12.74,10.297,21.538,10.163c6.479-0.098,12.026-1.892,16.639-5.438c4.614-3.54,9.31-9.627,14.104-18.308
	C314.403,409.325,317.453,411.322,323.551,415.337z M246.032,370.76c23.023-1.525,34.573-2.166,57.672-3.193
	c-1.984-15.08-7.102-25.45-15.194-30.289c-3.924-2.347-8.582-3.278-13.616-2.885c-7.551,0.589-13.67,3.636-18.36,9.021
	C251.204,349.517,247.707,358.638,246.032,370.76z">
<animateTransform  
			fill="remove" type="translate" 
			restart="always" 
			calcMode="linear" 
			additive="replace" 
			accumulate="none" 
			values="-450,0;-70,0;20.76,0"  
			dur="0.8s" repeatCount="1" 
			attributeType="XML" 
			attributeName="transform" 
			id="move">
		</animateTransform>
</path>
<path fill="#F7F7F8" d="M482.015,411.492c-3.425,12.008-9.407,21.744-17.703,29.245c-8.309,7.515-17.257,11.415-26.871,11.415
	c-7.179,0-13.755-1.739-19.755-5.193c-5.994-3.463-11.164-8.4-15.512-14.81c-4.35-6.409-7.718-14.06-10.053-22.915
	c-2.354-8.937-3.542-18.617-3.579-29.024c-0.05-13.711,1.879-26.346,5.895-37.733c3.935-11.145,9.584-19.934,16.798-26.225
	c7.216-6.283,15.348-9.415,24.397-9.343c11.32,0.096,20.391,5.221,27.169,15.229c0.021-4.943,0.034-7.417,0.055-12.358
	c6.637,0.166,9.95,0.264,16.578,0.494c-0.121,20.61-0.182,30.914-0.31,51.524c-6.593-0.146-9.894-0.204-16.491-0.31
	c-0.736-9.768-3.468-17.551-8.218-23.322c-4.747-5.766-10.765-8.703-18.035-8.758c-5.971-0.041-11.104,2.189-15.387,6.688
	c-4.281,4.495-7.487,10.414-9.618,17.744c-2.128,7.332-3.182,15.04-3.17,23.121c0.011,6.378,0.65,12.603,1.914,18.656
	c1.265,6.063,3.184,11.499,5.763,16.298c2.576,4.804,5.765,8.601,9.56,11.383c3.797,2.79,8.055,4.183,12.812,4.188
	c6.748,0.012,12.858-3.24,18.352-9.625c3.914-4.555,7.536-10.752,10.799-18.593C473.252,404.173,476.176,406.617,482.015,411.492z">
<animateTransform  
			fill="remove" type="translate" 
			restart="always" 
			calcMode="linear" 
			additive="replace" 
			accumulate="none" 
			values="-550,0;-70,0;20.76,0"  
			dur="0.9s" repeatCount="1" 
			attributeType="XML" 
			attributeName="transform" 
			id="move">
		</animateTransform>
</path>
<path fill="#F7F7F8" d="M517.427,451.365c-9.229,0-17.171-3.87-23.851-11.678c-6.68-7.803-9.982-18.493-9.896-32.045
	c0.057-9.098,1.78-17.025,5.182-23.771c3.4-6.731,7.897-11.803,13.484-15.185c5.584-3.383,11.411-4.947,17.481-4.721
	c9.818,0.371,18.317,4.885,25.505,13.351c0.103-8.241,0.149-12.362,0.248-20.596c0.096-7.654-1.56-13.534-4.969-17.661
	c-3.419-4.129-7.655-6.357-12.705-6.636c-4.789-0.264-9.514,1.1-14.171,4.104c-4.656,3.009-8.142,7.142-10.452,12.372
	c-6.887-2.961-10.339-4.438-17.234-7.374c3.229-8.274,6.688-14.786,10.253-19.52c3.609-4.787,7.876-8.197,12.796-10.103
	c4.914-1.909,10.879-2.646,17.886-2.189c8.95,0.58,16.208,2.771,21.763,6.449c5.558,3.682,9.61,9.18,12.174,16.438
	c2.55,7.261,3.75,16.542,3.593,27.892c-0.354,26.412-0.539,39.607-0.895,66.021c5.509,0.086,8.267,0.141,13.771,0.235
	c-0.133,9.099-0.198,13.646-0.326,22.739c-12.965-0.031-19.447-0.038-32.405-0.061c0.061-5.061,0.089-7.589,0.152-12.647
	C537.374,446.452,528.255,451.372,517.427,451.365z M545.071,399.744c-2.463-3.98-5.94-7.278-10.418-9.866
	c-4.478-2.582-9.009-3.954-13.587-4.088c-5.545-0.159-10.12,1.628-13.732,5.396c-3.612,3.771-5.442,9.569-5.51,17.372
	c-0.06,7.094,1.664,12.423,5.168,15.862c3.459,3.406,7.985,5.114,13.44,5.171c4.495,0.051,9.115-0.981,13.711-3.131
	c4.631-2.154,8.213-5.065,10.702-8.588C544.934,410.62,544.979,406.993,545.071,399.744z">
<animateTransform  
			fill="remove" type="translate" 
			restart="always" 
			calcMode="linear" 
			additive="replace" 
			accumulate="none" 
			values="-650,0;-70,0;20.76,0"  
			dur="1s" repeatCount="1" 
			attributeType="XML" 
			attributeName="transform" 
			id="move">
		</animateTransform>
</path>
<path fill="#F7F7F8" d="M655.206,434.359c-8.273,11.72-18.955,17.829-32.032,17.824c-9.175,0-17.371-2.79-24.619-8.49
	c-7.251-5.707-12.933-13.771-16.912-24.131c-3.976-10.334-5.854-22.273-5.664-35.58c0.193-13.223,2.362-25.234,6.516-35.887
	c4.095-10.482,9.791-18.28,17.096-23.31c7.299-5.035,15.644-6.909,25.014-5.714c6.869,0.869,12.647,3.063,17.34,6.419
	c4.604,3.29,9.31,8.586,14.06,15.789c0.309-18.372,0.459-27.56,0.771-45.937c-6.821-1.229-10.227-1.821-17.066-2.959
	c0.146-8.634,0.209-12.948,0.354-21.579c14.56,2.751,21.817,4.247,36.255,7.462c-0.832,50.266-1.646,100.529-2.47,150.798
	c5.492,0.166,8.235,0.245,13.726,0.421c-0.126,8.174-0.193,12.263-0.32,20.443c-12.92-0.051-19.383-0.066-32.305-0.109
	C655.048,443.636,655.104,440.543,655.206,434.359z M626.24,342.534c-6.291-0.666-11.721,0.825-16.284,4.524
	c-4.564,3.698-8.058,8.867-10.478,15.484c-2.424,6.623-3.694,13.828-3.813,21.556c-0.115,7.731,0.913,15.045,3.088,21.876
	c2.174,6.83,5.486,12.392,9.944,16.666c4.457,4.271,9.823,6.438,16.103,6.577c6.28,0.143,11.702-1.765,16.257-5.658
	c4.55-3.887,8.02-8.945,10.406-15.209c2.376-6.259,3.623-13.002,3.747-20.304c0.124-7.455-0.899-14.466-3.063-21.098
	c-2.157-6.628-5.45-12.183-9.865-16.657C637.881,345.826,632.529,343.201,626.24,342.534z">
<animateTransform  
			fill="remove" type="translate" 
			restart="always" 
			calcMode="linear" 
			additive="replace" 
			accumulate="none" 
			values="-750,0;-70,0;20.76,0"  
			dur="1.1s" repeatCount="1" 
			attributeType="XML" 
			attributeName="transform" 
			id="move">
		</animateTransform>
</path>
<path fill="#F7F7F8" d="M323.551,415.337c-4.281,9.23-8.634,16.566-13.059,22.066c-4.436,5.502-9.276,9.384-14.531,11.694
	c-5.259,2.312-11.418,3.45-18.468,3.45c-7.751,0-14.817-1.611-21.176-4.757c-6.363-3.142-11.839-7.609-16.417-13.379
	c-4.584-5.769-8.196-12.751-10.733-20.907c-2.527-8.142-3.842-17.291-4.01-27.419c-0.211-13.174,1.676-25.063,5.686-35.8
	c4.008-10.733,9.734-19.396,17.18-25.926c7.448-6.525,16.049-10.344,25.81-11.244c7.172-0.663,13.772,0.412,19.802,3.247
	c6.027,2.834,11.212,7.141,15.557,12.913c4.335,5.771,7.765,12.938,10.222,21.424c2.425,8.395,3.672,17.789,3.775,28.08
	c0.036,3.588,0.053,5.389,0.087,8.978c-30.965,0.872-46.445,1.479-77.316,3.028c1.019,11.868,4.41,21.225,10.064,28.177
	c5.563,6.836,12.74,10.297,21.538,10.163c6.479-0.098,12.026-1.892,16.639-5.438c4.614-3.54,9.31-9.627,14.104-18.308
	C314.403,409.325,317.453,411.322,323.551,415.337z M246.032,370.76c23.023-1.525,34.573-2.166,57.672-3.193
	c-1.984-15.08-7.102-25.45-15.194-30.289c-3.924-2.347-8.582-3.278-13.616-2.885c-7.551,0.589-13.67,3.636-18.36,9.021
	C251.204,349.517,247.707,358.638,246.032,370.76z">
<animateTransform  
			fill="remove" type="translate" 
			restart="always" 
			calcMode="linear" 
			additive="replace" 
			accumulate="none" 
			values="-850,0;-70,0;20.76,0"  
			dur="1.2s" repeatCount="1" 
			attributeType="XML" 
			attributeName="transform" 
			id="move">
		</animateTransform>
</path>
<path fill="#F7F7F8" d="M761.742,349.919c7.386,6.252,13.145,13.81,17.296,22.598c4.146,8.792,6.244,17.99,6.244,27.93
	c0,9.808-2.07,18.389-6.251,26.081c-4.187,7.69-10.093,13.808-17.647,18.351c-7.512,4.509-16.098,6.944-25.713,6.936
	c-7.242-0.015-13.976-1.425-20.179-4.36c-6.202-2.935-11.514-7.109-15.911-12.579c-4.399-5.472-7.806-12.058-10.158-19.693
	c-2.321-7.543-3.394-15.826-3.252-24.685c0.192-11.836,2.545-22.292,7.049-31.101c4.5-8.81,10.613-15.169,18.306-19.007
	c7.696-3.834,16.157-4.697,25.396-2.817C746.105,339.432,754.359,343.67,761.742,349.919z M719.925,359.51
	c-4.64,3.059-8.167,7.509-10.575,13.324c-2.403,5.813-3.663,12.294-3.763,19.344c-0.102,6.759,0.971,13.303,3.208,19.541
	c2.239,6.244,5.646,11.287,10.192,15.105c4.55,3.828,10.058,5.776,16.507,6.002c6.327,0.214,11.806-1.368,16.428-4.62
	c4.62-3.256,8.086-7.525,10.406-12.843c2.321-5.319,3.492-10.981,3.526-17.13c0.034-6.349-1.078-12.422-3.311-18.336
	c-2.232-5.923-5.599-11.007-10.101-15.269c-4.498-4.261-9.858-6.996-16.104-8.05C730.031,355.519,724.561,356.457,719.925,359.51z">
<animateTransform  
			fill="remove" type="translate" 
			restart="always" 
			calcMode="linear" 
			additive="replace" 
			accumulate="none" 
			values="-950,0;-70,0;20.76,0"  
			dur="1s" repeatCount="1" 
			attributeType="XML" 
			attributeName="transform" 
			id="move">
		</animateTransform>
</path>
<path fill="#F7F7F8" d="M350.394,287.641c-0.063-8.832-0.101-13.245-0.166-22.074c5.628-0.325,8.449-0.466,14.084-0.721
	c-0.271-44.807-0.537-89.612-0.806-134.416c-5.71,0.438-8.564,0.688-14.266,1.237c-0.063-8.783-0.099-13.172-0.166-21.953
	c34.634-2.681,68.195-3.697,102.925-3.114c-0.064,21.036-0.093,31.55-0.16,52.588c-6.599-0.236-9.903-0.322-16.505-0.427
	c0.015-12.188,0.021-18.29,0.042-30.478c-20.883-0.367-31.335-0.19-52.194,0.878c0.082,21.251,0.133,31.879,0.217,53.131
	c18.247-0.784,27.381-0.947,45.645-0.806c-0.007,9.119-0.015,13.678-0.02,22.798c-18.216-0.13-27.328,0.019-45.53,0.736
	c0.094,23.633,0.14,35.454,0.235,59.088c20.577-0.621,30.873-0.729,51.458-0.516c0.02-13.554,0.031-20.333,0.054-33.888
	c6.555,0.08,9.83,0.146,16.381,0.326c-0.069,22.445-0.102,33.667-0.175,56.118C417.661,285.875,384.155,286.363,350.394,287.641z">
<animateTransform  
			fill="remove" type="translate" 
			restart="always" 
			calcMode="linear" 
			additive="replace" 
			accumulate="none" 
			values="-550,0;-70,0;20.76,0"  
			dur="1s" repeatCount="1" 
			attributeType="XML" 
			attributeName="transform" 
			id="move">
		</animateTransform>
</path>
<path fill="#F7F7F8" d="M454.013,286.202c0.024-8.663,0.041-12.997,0.067-21.659c5.181,0.132,7.771,0.206,12.954,0.392
	c0.204-45.295,0.424-90.588,0.638-135.883c-5.253-0.314-7.882-0.452-13.132-0.678c0.033-8.662,0.043-12.999,0.07-21.661
	c12.479,0.567,18.71,0.99,31.161,2.105c-0.338,52.287-0.684,104.576-1.021,156.868c5.101,0.252,7.648,0.389,12.754,0.694
	c-0.066,8.579-0.104,12.867-0.171,21.446C480.021,286.916,471.353,286.588,454.013,286.202z">
<animateTransform  
			fill="remove" type="translate" 
			restart="always" 
			calcMode="linear" 
			additive="replace" 
			accumulate="none" 
			values="-450,0;-70,0;20.76,0"  
			dur="1s" repeatCount="1" 
			attributeType="XML" 
			attributeName="transform" 
			id="move">
		</animateTransform>
</path>
</svg>
